<svg width="33" height="33" viewBox="0 0 33 33" fill="none" xmlns="http://www.w3.org/2000/svg">
<g clip-path="url(#clip0_1210_2978)">
<path d="M10.7247 29.4303C22.9765 29.4303 29.6796 19.2774 29.6796 10.4754C29.6796 10.19 29.6732 9.89824 29.6605 9.61281C30.9645 8.66981 32.0898 7.50178 32.9835 6.16358C31.7691 6.70389 30.4798 7.05677 29.1595 7.21015C30.5496 6.37685 31.5905 5.06778 32.0892 3.5256C30.7814 4.30067 29.3512 4.84741 27.8598 5.14239C26.855 4.0747 25.5264 3.36776 24.0795 3.13087C22.6326 2.89399 21.1479 3.14034 19.8551 3.83186C18.5622 4.52337 17.5332 5.62153 16.927 6.95654C16.3209 8.29155 16.1714 9.78906 16.5017 11.2175C13.8536 11.0847 11.2629 10.3967 8.89771 9.1984C6.5325 8.00005 4.44551 6.31803 2.77205 4.26137C1.92151 5.7278 1.66125 7.46306 2.04415 9.11449C2.42705 10.7659 3.42439 12.2096 4.83347 13.1521C3.77562 13.1185 2.74094 12.8337 1.81492 12.3212V12.4037C1.81397 13.9426 2.34599 15.4343 3.32053 16.6253C4.29508 17.8163 5.65201 18.6331 7.16065 18.9368C6.18072 19.2049 5.15224 19.2439 4.15479 19.0509C4.5805 20.3744 5.40878 21.5319 6.52403 22.362C7.63928 23.1921 8.98586 23.6533 10.3758 23.6812C8.01607 25.5348 5.10108 26.5402 2.10035 26.5355C1.56819 26.5346 1.03656 26.502 0.508301 26.4378C3.55672 28.3935 7.10285 29.4322 10.7247 29.4303Z" fill="black"/>
</g>
<defs>
<clipPath id="clip0_1210_2978">
<rect width="32.4752" height="32.4752" fill="white" transform="translate(0.508301 -0.00012207)"/>
</clipPath>
</defs>
</svg>
